ply
format ascii 1.0
comment PCL generated
element vertex 18
property float x
property float y
property float z
element camera 1
property float view_px
property float view_py
property float view_pz
property float x_axisx
property float x_axisy
property float x_axisz
property float y_axisx
property float y_axisy
property float y_axisz
property float z_axisx
property float z_axisy
property float z_axisz
property float focal
property float scalex
property float scaley
property float centerx
property float centery
property int viewportx
property int viewporty
property float k1
property float k2
end_header
19.6924 -1.0456667 9.6959333
17.408064 -7.6927476 -28.152132
14.899875 -7.7832441 -22.960419
8.5209999 13.0233 -22.881701
13.85634 -7.5508623 -18.355347
-31.673201 -17.80805 -13.01333
6.1776276 12.629711 -12.243428
8.4023666 -17.675375 -7.0319161
-32.487221 -12.453341 -8.1444988
8.4863796 -13.13605 -7.1958494
-7.2913876 36.685825 -7.9076128
22.250549 -31.810202 -3.3459332
2.8433499 36.173477 -4.3665247
-29.169384 -2.7957196 3.0715499
-2.8376164 -26.054234 6.4554167
13.072416 7.3578568 6.9763269
-2.7536635 22.032986 7.0296831
-7.7862 -18.31175 18.269907
0 0 0 1 0 0 0 1 0 0 0 1 0 0 0 0 0 18 1 0 0
